<svg width="57" height="61" viewBox="0 0 57 61" fill="none" xmlns="http://www.w3.org/2000/svg">
<path d="M29.001 6.1H23.0008C22.7356 6.1 22.4812 5.99289 22.2937 5.80223C22.1061 5.61156 22.0008 5.35297 22.0008 5.08333C22.0008 4.8137 22.1061 4.5551 22.2937 4.36444C22.4812 4.17378 22.7356 4.06667 23.0008 4.06667H29.001C29.2662 4.06667 29.5206 4.17378 29.7081 4.36444C29.8957 4.5551 30.0011 4.8137 30.0011 5.08333C30.0011 5.35297 29.8957 5.61156 29.7081 5.80223C29.5206 5.99289 29.2662 6.1 29.001 6.1ZM37.0013 61H15.0005C13.6749 60.9984 12.404 60.4623 11.4666 59.5093C10.5293 58.5564 10.0019 57.2644 10.0004 55.9167V41.6833C10.0004 41.4137 10.1057 41.1551 10.2933 40.9644C10.4808 40.7738 10.7352 40.6667 11.0004 40.6667C11.2656 40.6667 11.52 40.7738 11.7075 40.9644C11.8951 41.1551 12.0004 41.4137 12.0004 41.6833V55.9167C12.0004 57.5982 13.3465 58.9667 15.0005 58.9667H37.0013C38.6554 58.9667 40.0014 57.5982 40.0014 55.9167V21.35C40.0014 21.0804 40.1068 20.8218 40.2943 20.6311C40.4818 20.4404 40.7362 20.3333 41.0014 20.3333C41.2667 20.3333 41.521 20.4404 41.7086 20.6311C41.8961 20.8218 42.0015 21.0804 42.0015 21.35V55.9167C42.0015 58.7186 39.7594 61 37.0013 61Z" fill="#FFB500"/>
<path d="M41.0014 8.13333C40.7362 8.13333 40.4818 8.02622 40.2943 7.83556C40.1068 7.6449 40.0014 7.3863 40.0014 7.11667V5.08333C40.0014 3.40177 38.6554 2.03333 37.0013 2.03333H15.0005C13.3465 2.03333 12.0004 3.40177 12.0004 5.08333V7.11667C12.0004 7.3863 11.8951 7.6449 11.7075 7.83556C11.52 8.02622 11.2656 8.13333 11.0004 8.13333C10.7352 8.13333 10.4808 8.02622 10.2933 7.83556C10.1057 7.6449 10.0004 7.3863 10.0004 7.11667V5.08333C10.0004 2.2814 12.2424 0 15.0005 0H37.0013C39.7594 0 42.0015 2.2814 42.0015 5.08333V7.11667C42.0015 7.3863 41.8961 7.6449 41.7086 7.83556C41.521 8.02622 41.2667 8.13333 41.0014 8.13333ZM25.0009 48.8H17.0006C16.7354 48.8 16.481 48.6929 16.2935 48.5022C16.1059 48.3116 16.0006 48.053 16.0006 47.7833C16.0006 47.5137 16.1059 47.2551 16.2935 47.0644C16.481 46.8738 16.7354 46.7667 17.0006 46.7667H25.0009C25.2661 46.7667 25.5205 46.8738 25.708 47.0644C25.8956 47.2551 26.0009 47.5137 26.0009 47.7833C26.0009 48.053 25.8956 48.3116 25.708 48.5022C25.5205 48.6929 25.2661 48.8 25.0009 48.8ZM31.0011 52.8667H17.0006C16.7354 52.8667 16.481 52.7596 16.2935 52.5689C16.1059 52.3782 16.0006 52.1196 16.0006 51.85C16.0006 51.5804 16.1059 51.3218 16.2935 51.1311C16.481 50.9404 16.7354 50.8333 17.0006 50.8333H31.0011C31.2663 50.8333 31.5207 50.9404 31.7082 51.1311C31.8958 51.3218 32.0011 51.5804 32.0011 51.85C32.0011 52.1196 31.8958 52.3782 31.7082 52.5689C31.5207 52.7596 31.2663 52.8667 31.0011 52.8667ZM35.0012 44.7333H17.0006C16.7354 44.7333 16.481 44.6262 16.2935 44.4356C16.1059 44.2449 16.0006 43.9863 16.0006 43.7167C16.0006 43.447 16.1059 43.1884 16.2935 42.9978C16.481 42.8071 16.7354 42.7 17.0006 42.7H35.0012C35.2665 42.7 35.5208 42.8071 35.7084 42.9978C35.8959 43.1884 36.0013 43.447 36.0013 43.7167C36.0013 43.9863 35.8959 44.2449 35.7084 44.4356C35.5208 44.6262 35.2665 44.7333 35.0012 44.7333ZM14.0005 26.4333C11.2424 26.4333 9.00032 24.1519 9.00032 21.35C9.00032 18.5481 11.2424 16.2667 14.0005 16.2667C16.7586 16.2667 19.0007 18.5481 19.0007 21.35C19.0007 24.1519 16.7586 26.4333 14.0005 26.4333ZM14.0005 18.3C12.3464 18.3 11.0004 19.6684 11.0004 21.35C11.0004 23.0316 12.3464 24.4 14.0005 24.4C15.6545 24.4 17.0006 23.0316 17.0006 21.35C17.0006 19.6684 15.6545 18.3 14.0005 18.3ZM14.0005 38.6333C10.4848 38.6296 7.09997 37.2776 4.52216 34.8473C4.39083 34.7238 4.29447 34.5669 4.24311 34.3927C4.19175 34.2185 4.18727 34.0336 4.23015 33.857C4.60064 32.3169 5.46962 30.9481 6.69748 29.9705C7.92534 28.9929 9.4408 28.4632 11.0004 28.4667H17.0006C18.56 28.4637 20.0752 28.9933 21.3032 29.9703C22.5312 30.9474 23.4009 32.3154 23.7728 33.855C23.8157 34.0315 23.8112 34.2165 23.7599 34.3907C23.7085 34.5648 23.6121 34.7218 23.4808 34.8452C20.9028 37.2768 17.5171 38.6296 14.0005 38.6333ZM6.34622 33.7676C10.6704 37.4296 17.3306 37.4296 21.6548 33.7676C21.2989 32.8057 20.6625 31.9773 19.8307 31.3933C18.9989 30.8093 18.0115 30.4976 17.0006 30.5H11.0004C9.98952 30.4976 9.00208 30.8093 8.17028 31.3933C7.33849 31.9773 6.70206 32.8057 6.34622 33.7676Z" fill="#FFB500"/>
<path d="M14.0005 38.6333C6.28222 38.6333 0 32.2487 0 24.4C0 16.5513 6.28222 10.1667 14.0005 10.1667C21.7188 10.1667 28.001 16.5513 28.001 24.4C28.001 32.2487 21.7188 38.6333 14.0005 38.6333ZM14.0005 12.2C7.38226 12.2 2.00007 17.6717 2.00007 24.4C2.00007 31.1283 7.38226 36.6 14.0005 36.6C20.6187 36.6 26.0009 31.1283 26.0009 24.4C26.0009 17.6717 20.6187 12.2 14.0005 12.2ZM5.00018 44.6317C4.44816 44.6317 4.00014 44.2779 4.00014 43.7167V43.5133C4.00014 43.2437 4.1055 42.9851 4.29304 42.7944C4.48059 42.6038 4.73495 42.4967 5.00018 42.4967C5.2654 42.4967 5.51976 42.6038 5.70731 42.7944C5.89485 42.9851 6.00021 43.2437 6.00021 43.5133C6.00021 44.0745 5.55219 44.6317 5.00018 44.6317ZM5.00018 48.6983C4.44816 48.6983 4.00014 48.3445 4.00014 47.7833V47.58C4.00014 47.3104 4.1055 47.0518 4.29304 46.8611C4.48059 46.6704 4.73495 46.5633 5.00018 46.5633C5.2654 46.5633 5.51976 46.6704 5.70731 46.8611C5.89485 47.0518 6.00021 47.3104 6.00021 47.58C6.00021 48.1412 5.55219 48.6983 5.00018 48.6983ZM5.00018 52.765C4.44816 52.765 4.00014 52.4112 4.00014 51.85V51.6467C4.00014 51.377 4.1055 51.1184 4.29304 50.9278C4.48059 50.7371 4.73495 50.63 5.00018 50.63C5.2654 50.63 5.51976 50.7371 5.70731 50.9278C5.89485 51.1184 6.00021 51.377 6.00021 51.6467C6.00021 52.2079 5.55219 52.765 5.00018 52.765ZM44.6816 52.8667H43.0015C42.7363 52.8667 42.4819 52.7596 42.2944 52.5689C42.1068 52.3782 42.0015 52.1196 42.0015 51.85C42.0015 51.5804 42.1068 51.3218 42.2944 51.1311C42.4819 50.9404 42.7363 50.8333 43.0015 50.8333H43.8755L44.3656 48.5255C44.4049 48.3387 44.4955 48.1669 44.6268 48.0302C44.7581 47.8935 44.9248 47.7973 45.1076 47.7528C46.0726 47.5123 46.995 47.1206 47.8417 46.5918C48.0013 46.4927 48.1851 46.4412 48.3721 46.443C48.5592 46.4448 48.7419 46.4999 48.8997 46.602L50.8798 47.8891L52.1058 46.6325L50.8398 44.6357C50.7382 44.4752 50.683 44.2888 50.6805 44.0979C50.678 43.907 50.7284 43.7193 50.8258 43.556C51.3461 42.6957 51.7308 41.7578 51.9658 40.7765C52.0098 40.5912 52.1039 40.4222 52.2376 40.2885C52.3712 40.1548 52.5389 40.0618 52.7218 40.0201L54.9999 39.5056V37.7631L52.7218 37.2486C52.5389 37.2069 52.3712 37.1139 52.2376 36.9802C52.1039 36.8465 52.0098 36.6775 51.9658 36.4922C51.7299 35.5112 51.3453 34.5735 50.8258 33.7127C50.7276 33.5502 50.6766 33.3628 50.6787 33.1721C50.6808 32.9814 50.736 32.7952 50.8378 32.635L52.1058 30.62L50.8818 29.3756L48.8997 30.6647C48.7421 30.7673 48.5593 30.8226 48.3721 30.8244C48.185 30.8262 48.0012 30.7744 47.8417 30.6749C46.9947 30.1468 46.0724 29.7551 45.1076 29.5138C44.9248 29.4693 44.7581 29.3732 44.6268 29.2364C44.4955 29.0997 44.4049 28.928 44.3656 28.7412L43.8755 26.4333H43.0015C42.7363 26.4333 42.4819 26.3262 42.2944 26.1356C42.1068 25.9449 42.0015 25.6863 42.0015 25.4167C42.0015 25.147 42.1068 24.8884 42.2944 24.6978C42.4819 24.5071 42.7363 24.4 43.0015 24.4H44.6816C44.91 24.4004 45.1315 24.4803 45.309 24.6264C45.4866 24.7726 45.6096 24.9761 45.6576 25.2032L46.1916 27.7103C46.9236 27.936 47.6417 28.241 48.3337 28.6212L50.4818 27.2243C50.6739 27.0995 50.9021 27.0452 51.1287 27.0703C51.3554 27.0955 51.5667 27.1986 51.7278 27.3626L54.0899 29.7619C54.2509 29.9259 54.3519 30.1409 54.3763 30.3713C54.4007 30.6017 54.3469 30.8336 54.2239 31.0287L52.8499 33.2125C53.2239 33.918 53.5239 34.648 53.7459 35.3942L56.216 35.9514C56.4382 36.0014 56.6371 36.1269 56.7796 36.3073C56.9222 36.4878 56.9999 36.7122 57 36.9436V40.319C56.9999 40.5504 56.9222 40.7748 56.7796 40.9553C56.6371 41.1357 56.4382 41.2612 56.216 41.3112L53.7459 41.8684C53.5201 42.6238 53.2199 43.354 52.8499 44.0481L54.2219 46.2116C54.3461 46.4059 54.401 46.6378 54.3773 46.8683C54.3537 47.0989 54.2529 47.3142 54.0919 47.4783L51.7298 49.898C51.5688 50.0628 51.3572 50.1666 51.1301 50.1921C50.9031 50.2176 50.6743 50.1634 50.4818 50.0383L48.3337 48.6414C47.6513 49.0169 46.9337 49.3221 46.1916 49.5523L45.6576 52.0594C45.6104 52.2873 45.4878 52.4917 45.3101 52.6387C45.1325 52.7856 44.9106 52.8661 44.6816 52.8667Z" fill="#FFB500"/>
<path d="M45.1076 44.2616C44.8801 44.2613 44.6596 44.1822 44.4823 44.0373C44.305 43.8924 44.1816 43.6905 44.1325 43.4647C44.0833 43.2389 44.1113 43.0029 44.2119 42.7955C44.3124 42.5881 44.4795 42.4217 44.6856 42.3238C45.3761 41.9953 45.9605 41.4739 46.3706 40.8204C46.7807 40.167 46.9996 39.4084 47.0016 38.6333C47.0007 37.9627 46.8368 37.3028 46.5245 36.7121C46.2122 36.1214 45.7613 35.6183 45.2117 35.2475C44.6621 34.8767 44.0309 34.6497 43.3742 34.5866C42.7175 34.5235 42.0556 34.6263 41.4475 34.8859C41.3257 34.9441 41.1936 34.9768 41.0591 34.9819C40.9246 34.987 40.7905 34.9644 40.6647 34.9156C40.539 34.8667 40.4243 34.7926 40.3274 34.6976C40.2306 34.6026 40.1536 34.4887 40.1011 34.3627C40.0485 34.2368 40.0216 34.1013 40.0217 33.9645C40.0219 33.8276 40.0493 33.6923 40.1022 33.5665C40.1551 33.4406 40.2324 33.327 40.3295 33.2322C40.4266 33.1375 40.5416 33.0637 40.6674 33.0152C41.5796 32.6258 42.5723 32.4715 43.5574 32.5658C44.5424 32.6602 45.4892 33.0005 46.3138 33.5563C47.1384 34.1122 47.8152 34.8664 48.2841 35.7521C48.753 36.6378 48.9995 37.6275 49.0017 38.6333C48.9992 39.7955 48.6713 40.9329 48.0565 41.9126C47.4416 42.8923 46.5652 43.6739 45.5296 44.166C45.3975 44.2289 45.2534 44.2615 45.1076 44.2616ZM48.0017 18.3H36.0013C33.7952 18.3 32.0011 16.4761 32.0011 14.2333C32.0011 11.9906 33.7952 10.1667 36.0013 10.1667H48.0017C50.2078 10.1667 52.0018 11.9906 52.0018 14.2333C52.0018 16.4761 50.2078 18.3 48.0017 18.3ZM36.0013 12.2C35.4863 12.2234 35 12.4479 34.6438 12.8266C34.2875 13.2054 34.0887 13.7093 34.0887 14.2333C34.0887 14.7574 34.2875 15.2613 34.6438 15.64C35 16.0188 35.4863 16.2432 36.0013 16.2667H48.0017C48.5167 16.2432 49.0029 16.0188 49.3592 15.64C49.7155 15.2613 49.9143 14.7574 49.9143 14.2333C49.9143 13.7093 49.7155 13.2054 49.3592 12.8266C49.0029 12.4479 48.5167 12.2234 48.0017 12.2H36.0013Z" fill="#FFB500"/>
</svg>
