<svg width="61" height="61" viewBox="0 0 61 61" fill="none" xmlns="http://www.w3.org/2000/svg">
<path d="M41.7262 31.8417C41.5904 31.7158 41.4208 31.6321 41.2383 31.6009C41.0557 31.5698 40.868 31.5925 40.6981 31.6663C40.5283 31.7402 40.3836 31.8619 40.2818 32.0167C40.1799 32.1714 40.1254 32.3525 40.1248 32.5378V58.4727C40.125 58.6308 40.1646 58.7865 40.24 58.9256C40.3154 59.0647 40.4241 59.1828 40.5565 59.2694C40.6889 59.3559 40.8407 59.4081 40.9983 59.4214C41.1559 59.4346 41.3143 59.4084 41.4593 59.3451L46.6018 57.1044L48.0316 60.4416C48.1356 60.6702 48.3256 60.8485 48.5603 60.9378C48.795 61.027 49.0554 61.02 49.285 60.9184L56.2386 57.9196C56.4671 57.8156 56.6453 57.6255 56.7346 57.3907C56.8238 57.156 56.8169 56.8955 56.7152 56.6658L55.2854 53.3286L60.4279 51.0879C60.573 51.0246 60.7001 50.9261 60.7976 50.8014C60.8951 50.6766 60.9601 50.5296 60.9866 50.3734C61.0131 50.2173 61.0002 50.057 60.9493 49.9071C60.8984 49.7572 60.8109 49.6223 60.6948 49.5146L41.7262 31.8417ZM53.6411 51.9556C53.4126 52.0596 53.2344 52.2497 53.1451 52.4845C53.0559 52.7192 53.0629 52.9797 53.1645 53.2094L54.5943 56.5466L49.3899 58.8111L47.9601 55.4739C47.856 55.2453 47.666 55.0671 47.4313 54.9778C47.1966 54.8885 46.9362 54.8955 46.7066 54.9972L42.0217 57.0377V34.7499L58.3309 49.9389L53.6411 51.9556Z" fill="#FFB500"/>
<path d="M37.1747 55.3023C37.4275 55.3023 37.6699 55.2019 37.8487 55.023C38.0274 54.8442 38.1279 54.6017 38.1279 54.3488C38.1279 54.0959 38.0274 53.8534 37.8487 53.6746C37.6699 53.4958 37.4275 53.3953 37.1747 53.3953H5.75731C4.73598 53.3953 3.75649 52.9895 3.0343 52.2671C2.31211 51.5447 1.90639 50.5649 1.90639 49.5432V17.1628H53.379V39.5698C53.379 39.8226 53.4794 40.0652 53.6582 40.244C53.8369 40.4228 54.0794 40.5232 54.3322 40.5232C54.585 40.5232 54.8275 40.4228 55.0062 40.244C55.185 40.0652 55.2854 39.8226 55.2854 39.5698V5.75907C55.2841 4.23206 54.6772 2.76795 53.5977 1.68819C52.5183 0.608425 51.0546 0.00126252 49.5281 0H5.75731C4.23076 0.00126252 2.7671 0.608425 1.68767 1.68819C0.608239 2.76795 0.00126213 4.23206 0 5.75907V49.548C0.00252342 51.0742 0.610057 52.5371 1.68935 53.6158C2.76865 54.6945 4.23159 55.301 5.75731 55.3023H37.1747ZM5.75731 1.90698H49.5329C50.5534 1.90824 51.5316 2.31464 52.2528 3.03691C52.9739 3.75918 53.379 4.73826 53.379 5.75907V15.2558H1.90639V5.75907C1.90639 4.73743 2.31211 3.75763 3.0343 3.03523C3.75649 2.31282 4.73598 1.90698 5.75731 1.90698Z" fill="#FFB500"/>
<path d="M46.7066 11.4419C47.2722 11.4419 47.8251 11.2741 48.2953 10.9598C48.7656 10.6455 49.1321 10.1987 49.3485 9.67604C49.565 9.15336 49.6216 8.57822 49.5113 8.02334C49.4009 7.46847 49.1286 6.95878 48.7287 6.55874C48.3287 6.1587 47.8192 5.88626 47.2645 5.77589C46.7098 5.66552 46.1348 5.72217 45.6123 5.93867C45.0898 6.15517 44.6432 6.5218 44.329 6.9922C44.0148 7.4626 43.847 8.01565 43.847 8.58139C43.847 9.34003 44.1483 10.0676 44.6846 10.604C45.2209 11.1405 45.9482 11.4419 46.7066 11.4419ZM46.7066 7.6279C46.8952 7.6279 47.0794 7.68383 47.2362 7.7886C47.3929 7.89337 47.5151 8.04228 47.5873 8.21651C47.6594 8.39074 47.6783 8.58245 47.6415 8.76741C47.6047 8.95237 47.5139 9.12226 47.3806 9.25561C47.2473 9.38896 47.0775 9.47977 46.8926 9.51656C46.7077 9.55335 46.516 9.53447 46.3419 9.4623C46.1677 9.39013 46.0188 9.26792 45.9141 9.11112C45.8093 8.95432 45.7534 8.76997 45.7534 8.58139C45.7534 8.32851 45.8539 8.08599 46.0326 7.90717C46.2114 7.72836 46.4538 7.6279 46.7066 7.6279ZM39.0811 11.4419C39.6466 11.4419 40.1995 11.2741 40.6698 10.9598C41.14 10.6455 41.5065 10.1987 41.723 9.67604C41.9394 9.15336 41.996 8.57822 41.8857 8.02334C41.7754 7.46847 41.503 6.95878 41.1031 6.55874C40.7032 6.1587 40.1936 5.88626 39.6389 5.77589C39.0842 5.66552 38.5093 5.72217 37.9867 5.93867C37.4642 6.15517 37.0176 6.5218 36.7034 6.9922C36.3892 7.4626 36.2215 8.01565 36.2215 8.58139C36.2215 9.34003 36.5227 10.0676 37.059 10.604C37.5953 11.1405 38.3226 11.4419 39.0811 11.4419ZM39.0811 7.6279C39.2696 7.6279 39.4539 7.68383 39.6106 7.7886C39.7674 7.89337 39.8895 8.04228 39.9617 8.21651C40.0338 8.39074 40.0527 8.58245 40.0159 8.76741C39.9792 8.95237 39.8884 9.12226 39.7551 9.25561C39.6218 9.38896 39.4519 9.47977 39.267 9.51656C39.0821 9.55335 38.8905 9.53447 38.7163 9.4623C38.5421 9.39013 38.3932 9.26792 38.2885 9.11112C38.1838 8.95432 38.1279 8.76997 38.1279 8.58139C38.1279 8.32851 38.2283 8.08599 38.407 7.90717C38.5858 7.72836 38.8283 7.6279 39.0811 7.6279ZM31.4555 11.4419C32.0211 11.4419 32.5739 11.2741 33.0442 10.9598C33.5144 10.6455 33.881 10.1987 34.0974 9.67604C34.3138 9.15336 34.3705 8.57822 34.2601 8.02334C34.1498 7.46847 33.8774 6.95878 33.4775 6.55874C33.0776 6.1587 32.5681 5.88626 32.0134 5.77589C31.4587 5.66552 30.8837 5.72217 30.3612 5.93867C29.8386 6.15517 29.392 6.5218 29.0778 6.9922C28.7636 7.4626 28.5959 8.01565 28.5959 8.58139C28.5959 9.34003 28.8972 10.0676 29.4334 10.604C29.9697 11.1405 30.6971 11.4419 31.4555 11.4419ZM31.4555 7.6279C31.644 7.6279 31.8283 7.68383 31.9851 7.7886C32.1418 7.89337 32.264 8.04228 32.3361 8.21651C32.4083 8.39074 32.4271 8.58245 32.3904 8.76741C32.3536 8.95237 32.2628 9.12226 32.1295 9.25561C31.9962 9.38896 31.8263 9.47977 31.6414 9.51656C31.4565 9.55335 31.2649 9.53447 31.0907 9.4623C30.9165 9.39013 30.7677 9.26792 30.6629 9.11112C30.5582 8.95432 30.5023 8.76997 30.5023 8.58139C30.5023 8.32851 30.6027 8.08599 30.7815 7.90717C30.9602 7.72836 31.2027 7.6279 31.4555 7.6279ZM35.2683 24.7907H17.0622C16.8434 23.713 16.2589 22.7441 15.4077 22.0481C14.5565 21.3521 13.4909 20.972 12.3916 20.972C11.2922 20.972 10.2266 21.3521 9.37539 22.0481C8.52418 22.7441 7.93966 23.713 7.72089 24.7907H6.67238C6.41957 24.7907 6.17712 24.8911 5.99836 25.07C5.8196 25.2488 5.71918 25.4913 5.71918 25.7442C5.71918 25.9971 5.8196 26.2396 5.99836 26.4184C6.17712 26.5972 6.41957 26.6977 6.67238 26.6977H7.72089C7.93966 27.7754 8.52418 28.7443 9.37539 29.4403C10.2266 30.1362 11.2922 30.5164 12.3916 30.5164C13.4909 30.5164 14.5565 30.1362 15.4077 29.4403C16.2589 28.7443 16.8434 27.7754 17.0622 26.6977H35.2683C35.5211 26.6977 35.7635 26.5972 35.9423 26.4184C36.121 26.2396 36.2215 25.9971 36.2215 25.7442C36.2215 25.4913 36.121 25.2488 35.9423 25.07C35.7635 24.8911 35.5211 24.7907 35.2683 24.7907ZM12.3916 28.6046C11.826 28.6046 11.2731 28.4369 10.8029 28.1226C10.3326 27.8083 9.96607 27.3615 9.74964 26.8388C9.5332 26.3162 9.47657 25.741 9.58691 25.1861C9.69725 24.6313 9.9696 24.1216 10.3695 23.7215C10.7694 23.3215 11.279 23.049 11.8337 22.9387C12.3884 22.8283 12.9634 22.885 13.4859 23.1015C14.0084 23.318 14.455 23.6846 14.7692 24.155C15.0834 24.6254 15.2511 25.1784 15.2511 25.7442C15.2511 26.5028 14.9499 27.2304 14.4136 27.7668C13.8773 28.3033 13.15 28.6046 12.3916 28.6046ZM25.641 43.8605C25.4222 42.7827 24.8377 41.8138 23.9865 41.1179C23.1353 40.4219 22.0697 40.0417 20.9703 40.0417C19.8709 40.0417 18.8054 40.4219 17.9542 41.1179C17.1029 41.8138 16.5184 42.7827 16.2997 43.8605H6.67238C6.41957 43.8605 6.17712 43.9609 5.99836 44.1397C5.8196 44.3185 5.71918 44.5611 5.71918 44.8139C5.71918 45.0668 5.8196 45.3093 5.99836 45.4882C6.17712 45.667 6.41957 45.7674 6.67238 45.7674H16.2997C16.5184 46.8451 17.1029 47.8141 17.9542 48.51C18.8054 49.206 19.8709 49.5862 20.9703 49.5862C22.0697 49.5862 23.1353 49.206 23.9865 48.51C24.8377 47.8141 25.4222 46.8451 25.641 45.7674H35.2683C35.5211 45.7674 35.7635 45.667 35.9423 45.4882C36.121 45.3093 36.2215 45.0668 36.2215 44.8139C36.2215 44.5611 36.121 44.3185 35.9423 44.1397C35.7635 43.9609 35.5211 43.8605 35.2683 43.8605H25.641ZM20.9703 47.6744C20.4047 47.6744 19.8519 47.5066 19.3816 47.1923C18.9114 46.878 18.5448 46.4313 18.3284 45.9086C18.112 45.3859 18.0553 44.8108 18.1657 44.2559C18.276 43.701 18.5484 43.1913 18.9483 42.7913C19.3482 42.3912 19.8577 42.1188 20.4124 42.0084C20.9671 41.8981 21.5421 41.9547 22.0646 42.1712C22.5872 42.3877 23.0338 42.7543 23.348 43.2248C23.6622 43.6952 23.8299 44.2482 23.8299 44.8139C23.8299 45.5726 23.5286 46.3001 22.9924 46.8366C22.4561 47.373 21.7287 47.6744 20.9703 47.6744ZM31.4555 30.5116C30.3568 30.5114 29.2917 30.8909 28.4406 31.5859C27.5895 32.2809 27.0046 33.2487 26.7848 34.3256H6.67238C6.41957 34.3256 6.17712 34.426 5.99836 34.6048C5.8196 34.7837 5.71918 35.0262 5.71918 35.2791C5.71918 35.5319 5.8196 35.7745 5.99836 35.9533C6.17712 36.1321 6.41957 36.2325 6.67238 36.2325H26.7848C26.9652 37.1163 27.3925 37.9308 28.0171 38.5814C28.6417 39.232 29.4381 39.692 30.3136 39.9079C31.1891 40.1238 32.108 40.0869 32.9633 39.8013C33.8187 39.5157 34.5755 38.9933 35.1459 38.2946C35.7163 37.596 36.0768 36.7498 36.1857 35.8544C36.2945 34.9589 36.1471 34.051 35.7607 33.236C35.3742 32.421 34.7646 31.7324 34.0025 31.2501C33.2404 30.7679 32.3572 30.5118 31.4555 30.5116ZM31.4555 38.1395C30.8899 38.1395 30.337 37.9718 29.8668 37.6574C29.3965 37.3431 29.03 36.8964 28.8136 36.3737C28.5971 35.851 28.5405 35.2759 28.6508 34.721C28.7612 34.1661 29.0335 33.6564 29.4334 33.2564C29.8334 32.8564 30.3429 32.5839 30.8976 32.4736C31.4523 32.3632 32.0273 32.4198 32.5498 32.6363C33.0723 32.8528 33.5189 33.2195 33.8331 33.6899C34.1474 34.1603 34.3151 34.7133 34.3151 35.2791C34.3151 36.0377 34.0138 36.7653 33.4775 37.3017C32.9412 37.8382 32.2139 38.1395 31.4555 38.1395Z" fill="#FFB500"/>
</svg>
