<svg width="60" height="61" viewBox="0 0 60 61" fill="none" xmlns="http://www.w3.org/2000/svg">
<path d="M58 7H59C59.2652 7 59.5196 6.89464 59.7071 6.70711C59.8946 6.51957 60 6.26522 60 6V2C60 1.73478 59.8946 1.48043 59.7071 1.29289C59.5196 1.10536 59.2652 1 59 1H55C54.7348 1 54.4804 1.10536 54.2929 1.29289C54.1054 1.48043 54 1.73478 54 2V3H34V1C34 0.734784 33.8946 0.48043 33.7071 0.292893C33.5196 0.105357 33.2652 0 33 0H27C26.7348 0 26.4804 0.105357 26.2929 0.292893C26.1054 0.48043 26 0.734784 26 1V3H6V2C6 1.73478 5.89464 1.48043 5.70711 1.29289C5.51957 1.10536 5.26522 1 5 1H1C0.734783 1 0.48043 1.10536 0.292893 1.29289C0.105357 1.48043 0 1.73478 0 2V6C0 6.26522 0.105357 6.51957 0.292893 6.70711C0.48043 6.89464 0.734783 7 1 7H2V54H1C0.734783 54 0.48043 54.1054 0.292893 54.2929C0.105357 54.4804 0 54.7348 0 55V59C0 59.2652 0.105357 59.5196 0.292893 59.7071C0.48043 59.8946 0.734783 60 1 60H5C5.26522 60 5.51957 59.8946 5.70711 59.7071C5.89464 59.5196 6 59.2652 6 59V58H26V60C26 60.2652 26.1054 60.5196 26.2929 60.7071C26.4804 60.8946 26.7348 61 27 61H33C33.2652 61 33.5196 60.8946 33.7071 60.7071C33.8946 60.5196 34 60.2652 34 60V58H54V59C54 59.2652 54.1054 59.5196 54.2929 59.7071C54.4804 59.8946 54.7348 60 55 60H59C59.2652 60 59.5196 59.8946 59.7071 59.7071C59.8946 59.5196 60 59.2652 60 59V55C60 54.7348 59.8946 54.4804 59.7071 54.2929C59.5196 54.1054 59.2652 54 59 54H58V7ZM56 3H58V5H56V3ZM28 2H32V6H28V2ZM2 3H4V5H2V3ZM4 7H5C5.26522 7 5.51957 6.89464 5.70711 6.70711C5.89464 6.51957 6 6.26522 6 6V5H19.495C12.398 7.805 6.812 13.358 4 20.27V7ZM4 58H2V56H4V58ZM5 54H4V40.73C6.812 47.642 12.398 53.195 19.495 56H6V55C6 54.7348 5.89464 54.4804 5.70711 54.2929C5.51957 54.1054 5.26522 54 5 54ZM24.25 23.884L27.791 33.562C26.522 34.492 25.949 36.172 26.517 37.721C26.6793 38.1688 26.9289 38.58 27.2512 38.9307C27.5736 39.2814 27.9624 39.5647 28.395 39.764C28.8265 39.9654 29.2936 40.0794 29.7694 40.0993C30.2452 40.1192 30.7202 40.0447 31.167 39.88C32.077 39.547 32.802 38.88 33.21 38.002C33.618 37.123 33.66 36.139 33.327 35.23C32.761 33.681 31.24 32.767 29.67 32.875L26.127 23.192L39.896 34.134C38.27 36.365 37.819 39.039 38.701 41.464L39.86 44.635L27.76 49.061L26.599 45.886C25.703 43.439 23.573 41.702 20.794 41.098L24.25 23.884ZM31.449 35.917C31.598 36.324 31.579 36.766 31.396 37.159C31.3065 37.3532 31.1793 37.5276 31.0219 37.6723C30.8645 37.817 30.68 37.9291 30.479 38.002C30.072 38.15 29.629 38.133 29.237 37.949C28.902 37.7925 28.6304 37.5266 28.4668 37.195C28.3032 36.8635 28.2573 36.4861 28.3369 36.125C28.4164 35.764 28.6165 35.4408 28.9043 35.2086C29.192 34.9765 29.5503 34.8493 29.92 34.848C30.2535 34.8489 30.5787 34.9517 30.8521 35.1428C31.1254 35.3339 31.3337 35.6041 31.449 35.917ZM28.447 50.941L40.547 46.514L42.8 52.676C42.744 52.707 42.689 52.74 42.633 52.77C41.9784 53.1294 41.3088 53.4607 40.626 53.763L40.507 53.814C39.9028 54.0787 39.2887 54.3202 38.666 54.538L38.647 54.545C38.551 54.579 38.453 54.609 38.356 54.642C37.6181 54.8885 36.8693 55.101 36.112 55.279C35.448 55.435 34.777 55.569 34.098 55.673L33.999 55.686V54C33.999 53.7348 33.8936 53.4804 33.7061 53.2929C33.5186 53.1054 33.2642 53 32.999 53H29.2L28.447 50.941ZM32 59H28V55H32V59ZM58 58H56V56H58V58ZM56 40.773V54H55C54.7348 54 54.4804 54.1054 54.2929 54.2929C54.1054 54.4804 54 54.7348 54 55V56H40.49C40.508 55.993 40.525 55.984 40.543 55.976C41.3001 55.6704 42.0432 55.331 42.77 54.959C43.374 54.6554 43.967 54.3305 44.548 53.985C45.1444 53.6268 45.7274 53.2469 46.296 52.846C46.477 52.72 46.65 52.587 46.827 52.457C47.4083 52.0315 47.973 51.5838 48.52 51.115C48.885 50.802 49.237 50.479 49.583 50.149C49.734 50.005 49.889 49.864 50.037 49.717C50.514 49.24 50.977 48.752 51.415 48.245C51.457 48.197 51.494 48.145 51.535 48.096C51.93 47.632 52.308 47.156 52.67 46.669C52.799 46.495 52.92 46.317 53.045 46.141C53.7252 45.1829 54.3399 44.1799 54.885 43.139C54.975 42.969 55.07 42.801 55.156 42.629C55.453 42.033 55.732 41.428 55.985 40.811C55.988 40.798 55.995 40.786 56 40.773ZM44.542 51.616L40.58 40.778C39.834 38.728 40.37 36.497 42.05 34.654C42.1423 34.5527 42.2128 34.4334 42.2571 34.3037C42.3014 34.174 42.3185 34.0365 42.3075 33.8999C42.2964 33.7632 42.2574 33.6303 42.1928 33.5094C42.1282 33.3885 42.0394 33.2822 41.932 33.197L24.837 19.612C24.676 19.006 24.352 17.324 25.31 16.105C26.401 14.718 28.935 14.211 32.635 14.627C36.348 15.053 38.925 14.485 40.302 12.953C41.384 11.751 41.409 10.245 41.254 9.544L39.302 9.978C39.304 9.987 39.468 10.891 38.816 11.617C37.921 12.61 35.805 12.971 32.861 12.641C28.369 12.128 25.302 12.882 23.738 14.87C22.158 16.879 22.697 19.418 22.938 20.259L18.629 41.724C18.6009 41.8604 18.6017 42.0011 18.6313 42.1372C18.661 42.2732 18.7189 42.4015 18.8013 42.5138C18.8837 42.626 18.9887 42.7197 19.1096 42.7888C19.2304 42.858 19.3645 42.9009 19.503 42.915C22.067 43.188 23.969 44.522 24.721 46.576L27.07 53H27C26.7348 53 26.4804 53.1054 26.2929 53.2929C26.1054 53.4804 26 53.7348 26 54V55.692C13.381 53.795 4 43.152 4 30.5C4 17.848 13.381 7.205 26 5.308V7C26 7.26522 26.1054 7.51957 26.2929 7.70711C26.4804 7.89464 26.7348 8 27 8H33C33.2652 8 33.5196 7.89464 33.7071 7.70711C33.8946 7.51957 34 7.26522 34 7V5.308C46.619 7.205 56 17.848 56 30.5C56 39.069 51.736 46.87 44.542 51.616ZM40.505 5H54V6C54 6.26522 54.1054 6.51957 54.2929 6.70711C54.4804 6.89464 54.7348 7 55 7H56V20.27C53.188 13.358 47.602 7.805 40.505 5Z" fill="#FFB500"/>
</svg>
