<svg width="70" height="61" viewBox="0 0 70 61" fill="none" xmlns="http://www.w3.org/2000/svg">
<path d="M66.5 30.5H65.3333V5.86538C65.3295 2.62769 62.72 0.0038125 59.5 0H10.5C7.28 0.0038125 4.67046 2.62769 4.66667 5.86538V23.4615H3.5C1.56698 23.4615 0 25.0371 0 26.9808V57.4808C0 59.4244 1.56698 61 3.5 61H47.8333C48.1428 61 48.4395 60.8764 48.6583 60.6564C48.8771 60.4364 49 60.138 49 59.8269C48.9962 56.5892 46.3867 53.9654 43.1667 53.9615H39.6667V46.9231H53.6667V57.4808C53.6667 59.4244 55.2337 61 57.1667 61H66.5C68.433 61 70 59.4244 70 57.4808V34.0192C70 32.0756 68.433 30.5 66.5 30.5ZM25.6667 57.4808C25.6667 57.7919 25.5438 58.0903 25.325 58.3103C25.1062 58.5303 24.8094 58.6538 24.5 58.6538H3.5C3.19058 58.6538 2.89383 58.5303 2.67504 58.3103C2.45625 58.0903 2.33333 57.7919 2.33333 57.4808V56.3077H25.6667V57.4808ZM25.6667 53.9615H2.33333V26.9808C2.33333 26.6697 2.45625 26.3713 2.67504 26.1513C2.89383 25.9313 3.19058 25.8077 3.5 25.8077H24.5C24.8094 25.8077 25.1062 25.9313 25.325 26.1513C25.5438 26.3713 25.6667 26.6697 25.6667 26.9808V53.9615ZM43.1667 56.3077C43.8903 56.3086 44.596 56.5345 45.1869 56.9546C45.7778 57.3746 46.225 57.9682 46.4672 58.6538H27.7853C27.9235 58.2782 27.9961 57.8813 28 57.4808V56.3077H43.1667ZM28 53.9615V46.9231H30.3333V53.9615H28ZM32.6667 53.9615V46.9231H37.3333V53.9615H32.6667ZM53.6667 44.5769H28V37.5385H53.6667V44.5769ZM53.6667 34.0192V35.1923H28V26.9808C27.996 26.4241 27.8592 25.8766 27.601 25.3842C27.6185 25.3678 27.6418 25.3631 27.6582 25.3455L39.2082 13.732C39.4207 13.5108 39.5383 13.2145 39.5356 12.9069C39.533 12.5993 39.4103 12.3051 39.194 12.0876C38.9776 11.8701 38.685 11.7467 38.3791 11.7441C38.0732 11.7414 37.7785 11.8596 37.5585 12.0733L26.0085 23.6868C25.9805 23.7161 25.9688 23.7536 25.9443 23.7841C25.4917 23.573 24.999 23.463 24.5 23.4615H7V5.86538C7 3.92174 8.56698 2.34615 10.5 2.34615H59.5C61.433 2.34615 63 3.92174 63 5.86538V30.5H57.1667C55.2337 30.5 53.6667 32.0756 53.6667 34.0192ZM67.6667 57.4808C67.6667 57.7919 67.5438 58.0903 67.325 58.3103C67.1062 58.5303 66.8094 58.6538 66.5 58.6538H57.1667C56.8573 58.6538 56.5605 58.5303 56.3417 58.3103C56.1229 58.0903 56 57.7919 56 57.4808V56.3077H67.6667V57.4808ZM67.6667 53.9615H56V34.0192C56 33.7081 56.1229 33.4097 56.3417 33.1897C56.5605 32.9697 56.8573 32.8462 57.1667 32.8462H66.5C66.8094 32.8462 67.1062 32.9697 67.325 33.1897C67.5438 33.4097 67.6667 33.7081 67.6667 34.0192V53.9615Z" fill="#FFB500"/>
<path d="M13.9405 37.7402C13.7217 37.5203 13.425 37.3968 13.1157 37.3968C12.8063 37.3968 12.5096 37.5203 12.2908 37.7402L7.34183 42.7164C7.11928 42.9326 6.99124 43.2288 6.98588 43.5398C6.98052 43.8509 7.09828 44.1514 7.31325 44.3752C7.42206 44.4884 7.55243 44.5785 7.69659 44.64C7.84076 44.7015 7.99576 44.7332 8.15238 44.7332C8.30899 44.7332 8.46399 44.7015 8.60816 44.64C8.75232 44.5785 8.88269 44.4884 8.9915 44.3752L13.9405 39.399C14.1488 39.036 13.7302 38.3461 13.9405 37.7402ZM20.9119 37.7402C20.6944 37.529 20.4038 37.4109 20.1014 37.4109C19.799 37.4109 19.5084 37.529 19.2908 37.7402L14.3418 42.7164C14.1193 42.9326 13.9912 43.2288 13.9859 43.5398C13.9805 43.8509 14.0983 44.1514 14.3133 44.3752C14.4221 44.4884 14.5524 44.5785 14.6966 44.64C14.8408 44.7015 14.9958 44.7332 15.1524 44.7332C15.309 44.7332 15.464 44.7015 15.6082 44.64C15.7523 44.5785 15.8827 44.4884 15.9915 44.3752L20.9405 39.399C21.1555 39.1752 21.2732 38.8747 21.2679 38.5636C21.2625 38.2526 21.1345 37.9564 20.9119 37.7402ZM46.2962 12.0745C46.0787 11.8633 45.7881 11.7452 45.4857 11.7452C45.1833 11.7452 44.8927 11.8633 44.6752 12.0745L33.1252 23.6879C33.0137 23.7962 32.9249 23.9256 32.8637 24.0687C32.8026 24.2118 32.7704 24.3658 32.769 24.5215C32.7677 24.6773 32.7972 24.8318 32.8559 24.9759C32.9145 25.1201 33.0012 25.2511 33.1107 25.3612C33.2202 25.4714 33.3505 25.5585 33.4939 25.6174C33.6373 25.6764 33.7909 25.7061 33.9458 25.7048C34.1007 25.7034 34.2538 25.671 34.3961 25.6096C34.5385 25.5481 34.6672 25.4587 34.7748 25.3467L46.3248 13.7332C46.5398 13.5094 46.6576 13.209 46.6522 12.8979C46.6468 12.5868 46.5188 12.2906 46.2962 12.0745ZM64.2793 40.9158C64.0617 40.7045 63.7711 40.5864 63.4687 40.5864C63.1663 40.5864 62.8757 40.7045 62.6582 40.9158L59.3588 44.2332C59.1363 44.4494 59.0083 44.7456 59.0029 45.0566C58.9975 45.3677 59.1153 45.6682 59.3302 45.8919C59.4391 46.0052 59.5694 46.0953 59.7136 46.1568C59.8578 46.2183 60.0128 46.25 60.1694 46.25C60.326 46.25 60.481 46.2183 60.6252 46.1568C60.7693 46.0953 60.8997 46.0052 61.0085 45.8919L64.3078 42.5745C64.5228 42.3507 64.6406 42.0502 64.6352 41.7392C64.6298 41.4281 64.5018 41.1319 64.2793 40.9158ZM35.0233 39.8846H35.0117C34.7023 39.8862 34.4061 40.0113 34.1884 40.2323C33.9707 40.4534 33.8493 40.7524 33.8508 41.0636C33.8524 41.3747 33.9768 41.6724 34.1967 41.8913C34.4166 42.1102 34.7139 42.2323 35.0233 42.2308C35.3328 42.2308 35.6295 42.1072 35.8483 41.8872C36.0671 41.6672 36.19 41.3688 36.19 41.0577C36.19 40.7466 36.0671 40.4482 35.8483 40.2282C35.6295 40.0082 35.3328 39.8846 35.0233 39.8846ZM37.3333 4.69231H32.6667C32.3573 4.69231 32.0605 4.8159 31.8417 5.03589C31.6229 5.25589 31.5 5.55426 31.5 5.86538C31.5 6.1765 31.6229 6.47488 31.8417 6.69487C32.0605 6.91487 32.3573 7.03846 32.6667 7.03846H37.3333C37.6428 7.03846 37.9395 6.91487 38.1583 6.69487C38.3771 6.47488 38.5 6.1765 38.5 5.86538C38.5 5.55426 38.3771 5.25589 38.1583 5.03589C37.9395 4.8159 37.6428 4.69231 37.3333 4.69231Z" fill="#FFB500"/>
</svg>
