<svg width="65" height="61" viewBox="0 0 65 61" fill="none" xmlns="http://www.w3.org/2000/svg">
<path d="M31.5735 29.2092C31.4853 29.2092 31.3971 29.1944 31.3235 29.1649C30.9412 29.0174 30.75 28.6044 30.8971 28.2208L37.8235 9.44135C37.9706 9.0578 38.3824 8.86602 38.7647 9.01354C39.1471 9.16106 39.3382 9.57412 39.2059 9.95768L32.2647 28.7224C32.1618 29.0174 31.8824 29.2092 31.5735 29.2092ZM15.0735 25.6982C12.6765 25.6982 10.7353 23.8394 10.7353 21.5676V13.2769C10.7353 12.8638 11.0588 12.5393 11.4706 12.5393C11.8824 12.5393 12.2059 12.8638 12.2059 13.2769V21.5676C12.2059 23.0281 13.5 24.223 15.0735 24.223C16.6471 24.223 17.9412 23.0281 17.9412 21.5676V13.2769C17.9412 12.8638 18.2647 12.5393 18.6765 12.5393C19.0882 12.5393 19.4118 12.8638 19.4118 13.2769V21.5676C19.4265 23.8542 17.4706 25.6982 15.0735 25.6982ZM22.1765 25.6982C22.0588 25.6982 21.9412 25.6687 21.8235 25.6097C21.4706 25.4179 21.3382 24.9753 21.5294 24.6065L27.8529 12.8343C28.0441 12.4803 28.4853 12.3475 28.8529 12.5393C29.2059 12.7311 29.3382 13.1736 29.1471 13.5424L22.8235 25.3146C22.6912 25.5654 22.4412 25.6982 22.1765 25.6982Z" fill="#FFB500"/>
<path d="M28.5 25.6982C28.2353 25.6982 27.9853 25.5654 27.8529 25.3146L21.5294 13.5424C21.3382 13.1884 21.4706 12.7311 21.8235 12.5393C22.1765 12.3475 22.6324 12.4803 22.8235 12.8343L29.1471 24.6065C29.3382 24.9606 29.2059 25.4179 28.8529 25.6097C28.7353 25.6687 28.6176 25.6982 28.5 25.6982ZM45.2059 25.6982C42.8088 25.6982 40.8676 23.8394 40.8676 21.5676V13.2769C40.8676 12.8638 41.1912 12.5393 41.6029 12.5393C42.0147 12.5393 42.3382 12.8638 42.3382 13.2769V21.5676C42.3382 23.0281 43.6324 24.223 45.2059 24.223C46.7794 24.223 48.0735 23.0281 48.0735 21.5676V13.2769C48.0735 12.8638 48.3971 12.5393 48.8088 12.5393C49.2206 12.5393 49.5441 12.8638 49.5441 13.2769V21.5676C49.5441 23.8542 47.6029 25.6982 45.2059 25.6982ZM53.5147 26.4948C53.1029 26.4948 52.7794 26.1703 52.7794 25.7572V12.3918C52.7794 11.9787 53.1029 11.6542 53.5147 11.6542C53.9265 11.6542 54.25 11.9787 54.25 12.3918V25.7572C54.25 26.1703 53.9265 26.4948 53.5147 26.4948ZM25.3971 45.2595C24.0588 45.2595 22.9706 44.1678 22.9706 42.8254C22.9706 41.4829 24.0588 40.3913 25.3971 40.3913C26.7353 40.3913 27.8235 41.4829 27.8235 42.8254C27.8235 44.1678 26.7353 45.2595 25.3971 45.2595ZM25.3971 41.8665C24.8676 41.8665 24.4412 42.2943 24.4412 42.8254C24.4412 43.3565 24.8676 43.7843 25.3971 43.7843C25.9265 43.7843 26.3529 43.3565 26.3529 42.8254C26.3529 42.2943 25.9265 41.8665 25.3971 41.8665ZM32.5 45.2595C31.1618 45.2595 30.0735 44.1678 30.0735 42.8254C30.0735 41.4829 31.1618 40.3913 32.5 40.3913C33.8382 40.3913 34.9265 41.4829 34.9265 42.8254C34.9265 44.1678 33.8382 45.2595 32.5 45.2595ZM32.5 41.8665C31.9706 41.8665 31.5441 42.2943 31.5441 42.8254C31.5441 43.3565 31.9706 43.7843 32.5 43.7843C33.0294 43.7843 33.4559 43.3565 33.4559 42.8254C33.4559 42.2943 33.0294 41.8665 32.5 41.8665ZM39.5882 45.2595C38.25 45.2595 37.1618 44.1678 37.1618 42.8254C37.1618 41.4829 38.25 40.3913 39.5882 40.3913C40.9265 40.3913 42.0147 41.4829 42.0147 42.8254C42.0147 44.1678 40.9265 45.2595 39.5882 45.2595ZM39.5882 41.8665C39.0588 41.8665 38.6324 42.2943 38.6324 42.8254C38.6324 43.3565 39.0588 43.7843 39.5882 43.7843C40.1176 43.7843 40.5441 43.3565 40.5441 42.8254C40.5441 42.2943 40.1176 41.8665 39.5882 41.8665Z" fill="#FFB500"/>
<path d="M60.4265 48.9623H4.55882C2.04412 48.9623 0 46.9117 0 44.3891V4.57316C0 2.05054 2.04412 0 4.55882 0H60.4265C62.9412 0 64.9853 2.05054 64.9853 4.57316V44.3891C65 46.9117 62.9412 48.9623 60.4265 48.9623ZM4.55882 1.46046C2.85294 1.46046 1.47059 2.84716 1.47059 4.5584V44.3744C1.47059 46.0856 2.85294 47.4723 4.55882 47.4723H60.4265C62.1324 47.4723 63.5147 46.0856 63.5147 44.3744V4.57316C63.5147 2.86191 62.1324 1.47521 60.4265 1.47521C60.4265 1.46046 4.55882 1.46046 4.55882 1.46046Z" fill="#FFB500"/>
<path d="M64.2647 38.1637H0.735294C0.323529 38.1637 0 37.8392 0 37.4261C0 37.0131 0.323529 36.6885 0.735294 36.6885H64.2647C64.6765 36.6885 65 37.0131 65 37.4261C65 37.8392 64.6618 38.1637 64.2647 38.1637ZM44.2353 55.763C43.8235 55.763 43.5 55.4385 43.5 55.0254V48.2099C43.5 47.7969 43.8235 47.4723 44.2353 47.4723C44.6471 47.4723 44.9706 47.7969 44.9706 48.2099V55.0254C44.9706 55.4385 44.6471 55.763 44.2353 55.763ZM21.0882 55.763C20.6765 55.763 20.3529 55.4385 20.3529 55.0254V48.2099C20.3529 47.7969 20.6765 47.4723 21.0882 47.4723C21.5 47.4723 21.8235 47.7969 21.8235 48.2099V55.0254C21.8235 55.4385 21.5 55.763 21.0882 55.763Z" fill="#FFB500"/>
<path d="M48.25 61H16.7353C14.8824 61 13.3824 59.4953 13.3824 57.6365C13.3824 55.7925 14.8824 54.273 16.7353 54.273H48.2353C50.0735 54.273 51.5882 55.7778 51.5882 57.6365C51.5882 59.4953 50.0882 61 48.25 61ZM16.7353 55.763C15.7059 55.763 14.8529 56.6039 14.8529 57.6513C14.8529 58.6987 15.6912 59.5395 16.7353 59.5395H48.2353C49.2647 59.5395 50.1176 58.6987 50.1176 57.6513C50.1176 56.6039 49.2794 55.763 48.2353 55.763H16.7353Z" fill="#FFB500"/>
</svg>
