<svg width="60" height="61" viewBox="0 0 60 61" fill="none" xmlns="http://www.w3.org/2000/svg">
<path d="M40.0951 4.87309H24.5432C24.4242 4.87306 24.3063 4.89649 24.1963 4.94206C24.0863 4.98762 23.9864 5.05442 23.9022 5.13864C23.818 5.22286 23.7513 5.32285 23.7057 5.4329C23.6602 5.54294 23.6368 5.66088 23.6368 5.77999C23.6368 5.89909 23.6602 6.01702 23.7058 6.12706C23.7513 6.2371 23.8181 6.33708 23.9022 6.4213C23.9864 6.50551 24.0863 6.57231 24.1963 6.61788C24.3063 6.66346 24.4242 6.6869 24.5432 6.68689H40.0949C40.214 6.6869 40.3319 6.66346 40.4418 6.61789C40.5518 6.57232 40.6518 6.50552 40.736 6.4213C40.8201 6.33709 40.8869 6.23711 40.9325 6.12707C40.978 6.01703 41.0015 5.89909 41.0015 5.77999C41.0015 5.66089 40.9781 5.54295 40.9325 5.43291C40.887 5.32288 40.8202 5.2229 40.736 5.13868C40.6519 5.05446 40.5519 4.98766 40.4419 4.94209C40.332 4.89652 40.2141 4.87307 40.0951 4.87309ZM31.4687 8.73789H24.5431C24.424 8.73788 24.3062 8.76132 24.1962 8.80689C24.0862 8.85246 23.9863 8.91927 23.9021 9.00348C23.8179 9.0877 23.7512 9.18768 23.7056 9.29772C23.6601 9.40775 23.6367 9.52569 23.6367 9.64479C23.6367 9.76389 23.6601 9.88183 23.7056 9.99186C23.7512 10.1019 23.8179 10.2019 23.9021 10.2861C23.9863 10.3703 24.0862 10.4371 24.1962 10.4827C24.3062 10.5283 24.424 10.5517 24.5431 10.5517H31.4687C31.9694 10.5517 32.3751 10.1458 32.3751 9.64479C32.3751 9.14381 31.9693 8.73789 31.4687 8.73789Z" fill="#FFB500"/>
<path d="M56.57 8.89611C56.451 8.8961 56.3331 8.91954 56.2231 8.96511C56.1131 9.01068 56.0132 9.07748 55.929 9.1617C55.8449 9.24592 55.7781 9.3459 55.7326 9.45594C55.687 9.56597 55.6636 9.68391 55.6636 9.80301C55.6636 9.92211 55.687 10.04 55.7326 10.1501C55.7781 10.2601 55.8449 10.3601 55.929 10.4443C56.0132 10.5285 56.1131 10.5953 56.2231 10.6409C56.3331 10.6865 56.451 10.7099 56.57 10.7099C57.4618 10.7099 58.1872 11.4357 58.1872 12.328V38.096H51.572V10.7098H53.0826C53.2016 10.7098 53.3195 10.6864 53.4295 10.6408C53.5395 10.5952 53.6394 10.5284 53.7236 10.4442C53.8077 10.36 53.8745 10.26 53.9201 10.15C53.9656 10.0399 53.989 9.92199 53.989 9.80289C53.989 9.68379 53.9656 9.56585 53.9201 9.45582C53.8745 9.34578 53.8077 9.2458 53.7236 9.16158C53.6394 9.07736 53.5395 9.01056 53.4295 8.96499C53.3195 8.91942 53.2016 8.89598 53.0826 8.89599H51.572V2.72487C51.572 1.22238 50.3503 0 48.8486 0H10.9098C9.40811 0 8.18639 1.22238 8.18639 2.72487V8.89611H3.43C1.53871 8.89611 0 10.4356 0 12.328V47.3598C0 49.2521 1.53871 50.7917 3.43 50.7917H9.01206C9.1311 50.7917 9.24897 50.7682 9.35895 50.7227C9.46893 50.6771 9.56886 50.6103 9.65303 50.5261C9.7372 50.4419 9.80396 50.3419 9.84951 50.2318C9.89505 50.1218 9.91849 50.0039 9.91847 49.8848C9.91849 49.7657 9.89505 49.6477 9.84951 49.5377C9.80396 49.4277 9.7372 49.3277 9.65303 49.2435C9.56886 49.1592 9.46893 49.0924 9.35895 49.0469C9.24897 49.0013 9.1311 48.9779 9.01206 48.9779H3.43C2.53823 48.9779 1.81282 48.2521 1.81282 47.3598V39.9097H58.1871V47.3598C58.1871 48.2521 57.4616 48.9779 56.5699 48.9779H13.2823C13.1632 48.9779 13.0454 49.0013 12.9354 49.0469C12.8254 49.0924 12.7255 49.1592 12.6413 49.2435C12.5571 49.3277 12.4904 49.4277 12.4448 49.5377C12.3993 49.6477 12.3758 49.7657 12.3759 49.8848C12.3758 50.0039 12.3993 50.1218 12.4448 50.2318C12.4904 50.3419 12.5571 50.4419 12.6413 50.5261C12.7255 50.6103 12.8254 50.6771 12.9354 50.7227C13.0454 50.7682 13.1632 50.7917 13.2823 50.7917H22.5709V55.5973C20.1296 55.6409 18.1565 57.6402 18.1565 60.0931C18.1565 60.2122 18.18 60.3301 18.2255 60.4402C18.271 60.5502 18.3378 60.6502 18.422 60.7344C18.5062 60.8186 18.6061 60.8854 18.7161 60.931C18.826 60.9766 18.9439 61 19.0629 61H40.9371C41.0561 61 41.174 60.9766 41.2839 60.931C41.3939 60.8854 41.4938 60.8186 41.578 60.7344C41.6622 60.6502 41.729 60.5502 41.7745 60.4402C41.82 60.3301 41.8435 60.2122 41.8435 60.0931C41.8435 57.6402 39.8704 55.6408 37.4291 55.5973V50.7917H56.57C58.4613 50.7917 60 49.2521 60 47.3598V12.328C59.9999 10.4356 58.4612 8.89611 56.57 8.89611ZM8.18639 38.096H1.81282V12.328C1.81282 11.4357 2.53823 10.7099 3.43 10.7099H8.18639V38.096ZM49.7592 13.2493H18.8817C18.7627 13.2493 18.6448 13.2727 18.5348 13.3183C18.4248 13.3638 18.3249 13.4306 18.2408 13.5149C18.1566 13.5991 18.0898 13.6991 18.0443 13.8091C17.9987 13.9191 17.9753 14.0371 17.9753 14.1562C17.9753 14.2753 17.9987 14.3932 18.0442 14.5033C18.0898 14.6133 18.1565 14.7133 18.2407 14.7975C18.3249 14.8817 18.4248 14.9485 18.5348 14.9941C18.6448 15.0397 18.7627 15.0631 18.8817 15.0631H49.7592V38.096H9.99909V15.0631H14.1684C14.2875 15.0631 14.4053 15.0396 14.5153 14.9941C14.6253 14.9485 14.7252 14.8817 14.8094 14.7975C14.8936 14.7133 14.9603 14.6133 15.0059 14.5032C15.0514 14.3932 15.0749 14.2753 15.0748 14.1562C15.0749 14.0371 15.0514 13.9191 15.0059 13.8091C14.9604 13.699 14.8936 13.599 14.8094 13.5148C14.7253 13.4306 14.6253 13.3638 14.5153 13.3182C14.4054 13.2727 14.2875 13.2492 14.1684 13.2493H9.99909V2.72487C9.99909 2.22245 10.4075 1.8138 10.9097 1.8138H48.8486C49.3508 1.8138 49.7592 2.22245 49.7592 2.72487V13.2493ZM24.3836 50.7916H35.6162V55.5952H24.3836V50.7916ZM39.8731 59.1862H20.1269C20.4994 58.151 21.4907 57.409 22.652 57.409H37.348C38.5093 57.409 39.5006 58.151 39.8731 59.1862Z" fill="#FFB500"/>
<path d="M30.4861 41.703C28.9757 41.703 27.7468 42.9326 27.7468 44.4439C27.7468 45.955 28.9757 47.1846 30.4861 47.1846C31.9967 47.1846 33.2254 45.9552 33.2254 44.4439C33.2254 42.9326 31.9966 41.703 30.4861 41.703ZM30.4861 45.3708C29.9754 45.3709 29.5597 44.955 29.5597 44.4439C29.5597 43.9326 29.9754 43.5168 30.4861 43.5168C30.997 43.5168 31.4126 43.9327 31.4126 44.4439C31.4126 44.955 30.9969 45.3708 30.4861 45.3708ZM19.922 9.38006L16.9386 4.20995C16.8591 4.0721 16.7446 3.95762 16.6069 3.87803C16.4691 3.79844 16.3128 3.75654 16.1537 3.75654C15.9946 3.75654 15.8383 3.79844 15.7005 3.87803C15.5627 3.95762 15.4483 4.0721 15.3687 4.20995L12.3854 9.38006C12.3057 9.51791 12.2638 9.67432 12.2638 9.83354C12.2637 9.99276 12.3056 10.1492 12.3852 10.2871C12.4647 10.425 12.5792 10.5395 12.717 10.619C12.8549 10.6986 13.0112 10.7405 13.1703 10.7404H19.1371C19.2963 10.7405 19.4526 10.6986 19.5904 10.619C19.7282 10.5394 19.8427 10.4249 19.9222 10.287C20.0018 10.1491 20.0436 9.99272 20.0436 9.83351C20.0435 9.6743 20.0016 9.5179 19.922 9.38006ZM14.7401 8.92673L16.1537 6.4772L17.5672 8.92673H14.7401ZM47.0882 18.407H33.9613C33.8423 18.407 33.7244 18.4304 33.6144 18.476C33.5045 18.5216 33.4045 18.5884 33.3204 18.6726C33.2362 18.7568 33.1694 18.8568 33.1239 18.9668C33.0783 19.0768 33.0549 19.1948 33.0549 19.3139C33.0549 19.433 33.0783 19.5509 33.1239 19.661C33.1694 19.771 33.2362 19.871 33.3204 19.9552C33.4045 20.0394 33.5045 20.1062 33.6144 20.1518C33.7244 20.1974 33.8423 20.2208 33.9613 20.2208H47.0882C47.2072 20.2208 47.3251 20.1974 47.4351 20.1518C47.545 20.1062 47.645 20.0394 47.7291 19.9552C47.8133 19.871 47.8801 19.771 47.9256 19.661C47.9712 19.5509 47.9946 19.433 47.9946 19.3139C47.9946 19.1948 47.9712 19.0768 47.9256 18.9668C47.8801 18.8568 47.8133 18.7568 47.7291 18.6726C47.645 18.5884 47.545 18.5216 47.4351 18.476C47.3251 18.4304 47.2072 18.407 47.0882 18.407ZM47.0882 22.3955H33.9613C33.8423 22.3954 33.7244 22.4189 33.6144 22.4645C33.5045 22.51 33.4045 22.5768 33.3204 22.661C33.2362 22.7453 33.1694 22.8452 33.1239 22.9553C33.0783 23.0653 33.0549 23.1833 33.0549 23.3024C33.0549 23.4215 33.0783 23.5394 33.1238 23.6494C33.1694 23.7595 33.2361 23.8595 33.3203 23.9437C33.4045 24.0279 33.5044 24.0947 33.6144 24.1403C33.7244 24.1859 33.8423 24.2093 33.9613 24.2093H47.0882C47.2072 24.2093 47.3251 24.1858 47.4351 24.1403C47.545 24.0947 47.645 24.0279 47.7291 23.9437C47.8133 23.8594 47.8801 23.7595 47.9256 23.6494C47.9712 23.5394 47.9946 23.4215 47.9946 23.3024C47.9946 23.1833 47.9712 23.0653 47.9256 22.9553C47.8801 22.8452 47.8133 22.7453 47.7291 22.661C47.645 22.5768 47.545 22.51 47.4351 22.4645C47.3251 22.4189 47.2072 22.3954 47.0882 22.3955ZM47.0882 26.3839H33.9613C33.8423 26.3839 33.7244 26.4074 33.6144 26.4529C33.5045 26.4985 33.4045 26.5653 33.3204 26.6495C33.2362 26.7337 33.1694 26.8337 33.1239 26.9438C33.0783 27.0538 33.0549 27.1717 33.0549 27.2908C33.0549 27.4099 33.0783 27.5279 33.1239 27.6379C33.1694 27.7479 33.2362 27.8479 33.3204 27.9321C33.4045 28.0164 33.5045 28.0832 33.6144 28.1287C33.7244 28.1743 33.8423 28.1977 33.9613 28.1977H47.0882C47.2072 28.1977 47.3251 28.1743 47.4351 28.1287C47.545 28.0832 47.645 28.0164 47.7291 27.9321C47.8133 27.8479 47.8801 27.7479 47.9256 27.6379C47.9712 27.5279 47.9946 27.4099 47.9946 27.2908C47.9946 27.1717 47.9712 27.0538 47.9256 26.9438C47.8801 26.8337 47.8133 26.7337 47.7291 26.6495C47.645 26.5653 47.545 26.4985 47.4351 26.4529C47.3251 26.4074 47.2072 26.3839 47.0882 26.3839ZM47.0882 30.3724H33.9613C33.8423 30.3724 33.7244 30.3958 33.6144 30.4414C33.5045 30.487 33.4045 30.5538 33.3204 30.638C33.2362 30.7222 33.1694 30.8222 33.1239 30.9322C33.0783 31.0423 33.0549 31.1602 33.0549 31.2793C33.0549 31.3984 33.0783 31.5163 33.1239 31.6264C33.1694 31.7364 33.2362 31.8364 33.3204 31.9206C33.4045 32.0048 33.5045 32.0716 33.6144 32.1172C33.7244 32.1628 33.8423 32.1862 33.9613 32.1862H47.0882C47.2072 32.1862 47.3251 32.1628 47.4351 32.1172C47.545 32.0716 47.645 32.0048 47.7291 31.9206C47.8133 31.8364 47.8801 31.7364 47.9256 31.6264C47.9712 31.5163 47.9946 31.3984 47.9946 31.2793C47.9946 31.1602 47.9712 31.0423 47.9256 30.9322C47.8801 30.8222 47.8133 30.7222 47.7291 30.638C47.645 30.5538 47.545 30.487 47.4351 30.4414C47.3251 30.3958 47.2072 30.3724 47.0882 30.3724ZM40.0949 34.3609H33.9613C33.8423 34.3609 33.7244 34.3843 33.6144 34.4299C33.5045 34.4754 33.4045 34.5422 33.3204 34.6265C33.2362 34.7107 33.1694 34.8107 33.1239 34.9207C33.0783 35.0307 33.0549 35.1487 33.0549 35.2678C33.0549 35.3869 33.0783 35.5048 33.1239 35.6148C33.1694 35.7249 33.2362 35.8249 33.3204 35.9091C33.4045 35.9933 33.5045 36.0601 33.6144 36.1057C33.7244 36.1512 33.8423 36.1747 33.9613 36.1747H40.0949C40.214 36.1747 40.3319 36.1512 40.4418 36.1057C40.5518 36.0601 40.6517 35.9933 40.7359 35.9091C40.8201 35.8249 40.8868 35.7249 40.9324 35.6148C40.9779 35.5048 41.0014 35.3869 41.0014 35.2678C41.0014 35.1487 40.978 35.0307 40.9324 34.9207C40.8869 34.8106 40.8201 34.7106 40.7359 34.6264C40.6518 34.5422 40.5518 34.4754 40.4419 34.4298C40.3319 34.3843 40.214 34.3608 40.0949 34.3609ZM29.8791 17.6429H13.1702C13.0512 17.6429 12.9333 17.6664 12.8233 17.7119C12.7133 17.7575 12.6134 17.8243 12.5292 17.9085C12.4451 17.9927 12.3783 18.0927 12.3328 18.2028C12.2872 18.3128 12.2638 18.4307 12.2638 18.5498V35.2678C12.2638 35.3869 12.2872 35.5048 12.3328 35.6148C12.3783 35.7249 12.4451 35.8249 12.5292 35.9091C12.6134 35.9933 12.7133 36.0601 12.8233 36.1057C12.9333 36.1512 13.0512 36.1747 13.1702 36.1747H29.8791C29.9982 36.1747 30.116 36.1512 30.226 36.1057C30.336 36.0601 30.4359 35.9933 30.5201 35.9091C30.6043 35.8249 30.671 35.7249 30.7166 35.6148C30.7621 35.5048 30.7856 35.3869 30.7855 35.2678V18.5498C30.7856 18.4307 30.7621 18.3128 30.7166 18.2028C30.671 18.0927 30.6043 17.9927 30.5201 17.9085C30.4359 17.8243 30.336 17.7575 30.226 17.7119C30.116 17.6664 29.9982 17.6429 29.8791 17.6429ZM14.0767 19.4567H28.9727V28.9391C28.8718 28.9215 28.7703 28.9069 28.6685 28.8952C27.0887 28.718 26.1804 29.3505 25.4502 29.8585C24.9021 30.2398 24.4288 30.5691 23.636 30.6334C22.3535 30.7388 21.5313 30.0566 20.4897 29.1945C19.3303 28.235 18.0152 27.1487 15.9249 27.2746C15.2981 27.3127 14.6803 27.4569 14.0767 27.7041V19.4567ZM28.9728 34.3609H14.0766V29.7302C14.7196 29.3417 15.3765 29.1251 16.0348 29.0851C17.4117 29.0011 18.3028 29.7385 19.3343 30.5921C20.4742 31.5355 21.7654 32.6038 23.7825 32.4413C25.0624 32.3374 25.8511 31.7886 26.4851 31.3478C27.1353 30.8955 27.5654 30.5971 28.467 30.6977C28.6346 30.7165 28.8036 30.7479 28.9728 30.7919V34.3609Z" fill="#FFB500"/>
<path d="M23.916 21.4825C22.3868 21.4825 21.1429 22.7271 21.1429 24.2572C21.1429 25.787 22.3868 27.0318 23.916 27.0318C25.4452 27.0318 26.6892 25.7872 26.6892 24.2572C26.6892 22.7271 25.4452 21.4825 23.916 21.4825ZM23.916 25.2181C23.3865 25.2181 22.9556 24.787 22.9556 24.2572C22.9556 23.7272 23.3865 23.2962 23.916 23.2962C24.4456 23.2962 24.8765 23.7273 24.8765 24.2572C24.8765 24.787 24.4456 25.2181 23.916 25.2181Z" fill="#FFB500"/>
</svg>
