<svg width="250" height="70" viewBox="0 0 250 70" fill="none" xmlns="http://www.w3.org/2000/svg">
<g id="Vector">
<path d="M66.129 69.7746L63.1236 51.5179H65.2638L67.2447 64.6357L69.7265 51.5855H71.548L74.0525 64.7033L75.9878 51.5179H78.0825L75.1226 69.7746H73.2556L70.6827 56.2511L68.0871 69.7746H66.129Z" fill="#FFB500"/>
<path d="M86.0177 69.7746V51.5179H93.1671V53.4111H88.5906V59.4517H92.3019V61.2548H88.5906V67.9489H93.2126V69.7746H86.0177Z" fill="#FFB500"/>
<path d="M100.982 69.7746V51.5179H105.217C106.052 51.5179 106.773 51.608 107.38 51.7883C108.002 51.9686 108.518 52.2466 108.928 52.6223C109.338 52.9979 109.641 53.4788 109.839 54.0648C110.036 54.6358 110.135 55.312 110.135 56.0933C110.135 56.8446 110.036 57.4983 109.839 58.0542C109.657 58.5952 109.368 59.0234 108.974 59.339C108.594 59.6545 108.101 59.8574 107.494 59.9475C108.237 60.1128 108.837 60.3983 109.292 60.804C109.748 61.1947 110.082 61.7056 110.294 62.3367C110.522 62.9527 110.636 63.6965 110.636 64.5681C110.636 65.3494 110.545 66.0631 110.362 66.7093C110.18 67.3554 109.892 67.9039 109.497 68.3546C109.118 68.8054 108.624 69.1585 108.017 69.414C107.425 69.6544 106.72 69.7746 105.9 69.7746H100.982ZM103.555 67.9489H105.285C106.439 67.9489 107.205 67.686 107.585 67.1601C107.979 66.6191 108.177 65.7551 108.177 64.5681C108.177 63.8017 108.07 63.1631 107.858 62.6522C107.661 62.1263 107.334 61.7356 106.879 61.4802C106.439 61.2097 105.839 61.0745 105.08 61.0745H103.555V67.9489ZM103.555 59.1361H105.08C105.809 59.1361 106.378 59.0384 106.788 58.8431C107.198 58.6327 107.486 58.3022 107.653 57.8514C107.82 57.4006 107.903 56.8146 107.903 56.0933C107.903 55.2518 107.774 54.6433 107.516 54.2676C107.258 53.892 106.856 53.6591 106.31 53.5689C105.763 53.4637 105.05 53.4111 104.169 53.4111H103.555V59.1361Z" fill="#FFB500"/>
<path d="M129.509 69.7746V51.5179H133.517C134.883 51.5179 135.96 51.7282 136.75 52.1489C137.554 52.5547 138.123 53.1707 138.457 53.9972C138.806 54.8236 138.981 55.8529 138.981 57.085V63.8017C138.981 65.094 138.806 66.1834 138.457 67.0699C138.123 67.9564 137.569 68.6326 136.795 69.0984C136.036 69.5492 135.012 69.7746 133.721 69.7746H129.509ZM132.082 67.9489H133.539C134.48 67.9489 135.148 67.7686 135.543 67.408C135.938 67.0474 136.173 66.5214 136.249 65.8302C136.34 65.139 136.385 64.3051 136.385 63.3284V57.4006C136.385 56.4539 136.325 55.6876 136.203 55.1016C136.082 54.5156 135.816 54.0873 135.406 53.8169C134.996 53.5464 134.351 53.4111 133.471 53.4111H132.082V67.9489Z" fill="#FFB500"/>
<path d="M147.208 69.7746V51.5179H154.358V53.4111H149.781V59.4517H153.492V61.2548H149.781V67.9489H154.403V69.7746H147.208Z" fill="#FFB500"/>
<path d="M166.521 69.9775C165.459 69.9775 164.571 69.7521 163.857 69.3013C163.159 68.8505 162.628 68.2269 162.263 67.4305C161.899 66.6341 161.687 65.71 161.626 64.6582L163.903 64.0496C163.948 64.6958 164.047 65.3194 164.199 65.9204C164.366 66.5214 164.631 67.0173 164.996 67.408C165.36 67.7836 165.868 67.9715 166.521 67.9715C167.189 67.9715 167.69 67.7912 168.024 67.4305C168.373 67.0549 168.548 66.5214 168.548 65.8302C168.548 65.0038 168.358 64.3427 167.978 63.8468C167.599 63.3359 167.121 62.825 166.544 62.3141L163.447 59.6094C162.84 59.0835 162.392 58.5125 162.104 57.8964C161.816 57.2653 161.671 56.4915 161.671 55.5749C161.671 54.2376 162.059 53.2008 162.833 52.4645C163.607 51.7282 164.662 51.3601 165.997 51.3601C166.726 51.3601 167.364 51.4577 167.91 51.6531C168.472 51.8334 168.935 52.1189 169.299 52.5096C169.678 52.9003 169.974 53.3961 170.187 53.9972C170.415 54.5832 170.566 55.2744 170.642 56.0708L168.456 56.6568C168.411 56.0557 168.32 55.5073 168.183 55.0114C168.047 54.5005 167.804 54.0948 167.455 53.7943C167.121 53.4788 166.635 53.321 165.997 53.321C165.36 53.321 164.859 53.4938 164.495 53.8394C164.146 54.17 163.971 54.6658 163.971 55.327C163.971 55.8829 164.062 56.3412 164.244 56.7019C164.442 57.0625 164.753 57.4306 165.178 57.8063L168.297 60.511C168.995 61.112 169.61 61.8333 170.141 62.6748C170.673 63.5012 170.938 64.4854 170.938 65.6274C170.938 66.529 170.749 67.3103 170.369 67.9715C169.99 68.6176 169.466 69.1135 168.798 69.4591C168.145 69.8047 167.386 69.9775 166.521 69.9775Z" fill="#FFB500"/>
<path d="M178.763 69.7746V51.5179H181.29V69.7746H178.763Z" fill="#FFB500"/>
<path d="M194.36 70C193.207 70 192.281 69.7596 191.583 69.2787C190.9 68.7829 190.399 68.0691 190.08 67.1375C189.776 66.2059 189.625 65.0864 189.625 63.7792V57.6711C189.625 56.3337 189.761 55.1993 190.034 54.2676C190.323 53.321 190.824 52.5997 191.537 52.1039C192.266 51.608 193.275 51.3601 194.565 51.3601C195.719 51.3601 196.645 51.5554 197.343 51.9461C198.056 52.3218 198.573 52.9078 198.891 53.7042C199.21 54.4855 199.369 55.4772 199.369 56.6793V57.3555H196.956V56.792C196.956 55.9956 196.903 55.3495 196.797 54.8537C196.69 54.3428 196.47 53.9671 196.136 53.7267C195.818 53.4712 195.309 53.3435 194.611 53.3435C193.852 53.3435 193.298 53.5163 192.949 53.8619C192.615 54.2075 192.402 54.6809 192.311 55.2819C192.235 55.8679 192.197 56.5366 192.197 57.2879V64.0496C192.197 64.9212 192.258 65.6499 192.38 66.236C192.516 66.822 192.767 67.2577 193.131 67.5432C193.495 67.8287 194.011 67.9715 194.679 67.9715C195.347 67.9715 195.863 67.8137 196.227 67.4981C196.592 67.1826 196.842 66.7168 196.979 66.1007C197.115 65.4846 197.184 64.7183 197.184 63.8017V62.5395H194.839V60.7364H199.506V69.7746H197.889L197.639 67.6785C197.396 68.3546 197.017 68.9106 196.501 69.3464C195.985 69.7821 195.271 70 194.36 70Z" fill="#FFB500"/>
<path d="M207.843 69.7746V51.5179H209.596L214.833 63.6439V51.5179H216.973V69.7746H215.334L210.029 57.3104V69.7746H207.843Z" fill="#FFB500"/>
<path d="M225.564 69.7746V51.5179H232.714V53.4111H228.137V59.4517H231.848V61.2548H228.137V67.9489H232.759V69.7746H225.564Z" fill="#FFB500"/>
<path d="M240.528 69.7746V51.5179H244.24C245.469 51.5179 246.486 51.6831 247.291 52.0137C248.095 52.3293 248.687 52.8477 249.066 53.5689C249.461 54.2751 249.658 55.2068 249.658 56.3638C249.658 57.07 249.583 57.7161 249.431 58.3022C249.279 58.8731 249.036 59.3615 248.702 59.7672C248.368 60.1579 247.928 60.4434 247.382 60.6237L250 69.7746H247.518L245.105 61.2097H243.101V69.7746H240.528ZM243.101 59.384H244.08C244.809 59.384 245.401 59.2939 245.856 59.1136C246.311 58.9333 246.645 58.6252 246.858 58.1895C247.07 57.7537 247.177 57.1451 247.177 56.3638C247.177 55.2969 246.979 54.5306 246.585 54.0648C246.19 53.5839 245.408 53.3435 244.24 53.3435H243.101V59.384Z" fill="#FFB500"/>
<path d="M5.96081 31.458V18.7752L0 0.421482H6.54141L9.52182 10.2305L12.1926 0.421482H18.463L12.6183 18.7752V31.458H5.96081Z" fill="white"/>
<path d="M32.0941 31.9178C29.6943 31.9178 27.8106 31.5346 26.4429 30.7683C25.1011 29.9764 24.1592 28.8397 23.6174 27.3581C23.0755 25.851 22.8045 24.0118 22.8045 21.8405V0.421482H29.6556V22.875C29.6556 23.5136 29.7072 24.1523 29.8104 24.7909C29.9136 25.4295 30.133 25.9531 30.4684 26.3619C30.8297 26.7706 31.3716 26.9749 32.0941 26.9749C32.8424 26.9749 33.3843 26.7706 33.7198 26.3619C34.0552 25.9531 34.2617 25.4295 34.3391 24.7909C34.4423 24.1523 34.4939 23.5136 34.4939 22.875V0.421482H41.3837V21.8405C41.3837 24.0118 41.0998 25.851 40.5321 27.3581C39.9902 28.8397 39.0484 29.9764 37.7065 30.7683C36.3647 31.5346 34.4939 31.9178 32.0941 31.9178Z" fill="white"/>
<path d="M51.9076 31.458L46.2565 0.421482H52.1786L55.546 21.4956L58.6813 0.421482H64.9517L59.2232 31.458H51.9076Z" fill="white"/>
<path d="M70.0365 31.458V0.421482H78.6681C80.784 0.421482 82.6161 0.651382 84.1644 1.11118C85.7127 1.57098 86.9126 2.40118 87.7641 3.60176C88.6415 4.77681 89.0801 6.44997 89.0801 8.62125C89.0801 9.89847 88.9769 11.0352 88.7705 12.0314C88.564 13.0277 88.177 13.8962 87.6093 14.637C87.0674 15.3522 86.2804 15.9525 85.2482 16.4378L89.5446 31.458H82.3839L78.939 17.549H76.965V31.458H70.0365ZM76.965 13.6024H78.9003C79.8809 13.6024 80.6421 13.4364 81.184 13.1043C81.7259 12.7467 82.1001 12.2486 82.3065 11.6099C82.5387 10.9458 82.6548 10.1539 82.6548 9.23431C82.6548 7.906 82.4097 6.87145 81.9194 6.13066C81.4291 5.38987 80.526 5.01948 79.21 5.01948H76.965V13.6024Z" fill="white"/>
<path d="M93.6711 31.458L99.5932 0.421482H107.489L113.334 31.458H106.947L105.902 24.9058H101.296L100.213 31.458H93.6711ZM101.916 20.8059H105.244L103.58 8.69788L101.916 20.8059Z" fill="white"/>
<path d="M116.616 32.2626V27.473C117.312 27.473 117.906 27.4347 118.396 27.3581C118.886 27.2815 119.273 27.141 119.557 26.9366C119.841 26.7067 120.048 26.3874 120.177 25.9787C120.306 25.5444 120.37 24.9952 120.37 24.3311V0.421482H127.299V24.6376C127.299 26.3235 127.079 27.7413 126.641 28.8907C126.228 30.0147 125.492 30.8577 124.434 31.4196C123.376 31.9816 121.893 32.2626 119.983 32.2626H116.616Z" fill="white"/>
<path d="M154.025 31.9178C152.064 31.9178 150.426 31.5729 149.109 30.8832C147.793 30.1935 146.8 29.1334 146.129 27.7029C145.458 26.2469 145.084 24.3694 145.007 22.0704L150.929 21.1891C150.954 22.5174 151.071 23.5903 151.277 24.4077C151.509 25.2251 151.819 25.8126 152.206 26.1703C152.619 26.5279 153.109 26.7067 153.677 26.7067C154.399 26.7067 154.864 26.464 155.07 25.9787C155.303 25.4933 155.419 24.9825 155.419 24.446C155.419 23.1688 155.109 22.0959 154.49 21.2274C153.87 20.3334 153.032 19.4393 151.974 18.5453L149.264 16.2079C148.077 15.2117 147.071 14.0878 146.245 12.8361C145.445 11.5589 145.045 9.98787 145.045 8.12313C145.045 5.49205 145.832 3.48682 147.406 2.10742C148.98 0.702472 151.122 0 153.832 0C155.509 0 156.851 0.280989 157.857 0.842967C158.889 1.40494 159.663 2.14573 160.18 3.06533C160.721 3.95939 161.083 4.9173 161.263 5.93908C161.47 6.93531 161.586 7.89323 161.612 8.81283L155.651 9.54084C155.625 8.62124 155.561 7.82937 155.457 7.16521C155.38 6.47551 155.199 5.95185 154.915 5.59423C154.632 5.21106 154.193 5.01948 153.599 5.01948C152.954 5.01948 152.477 5.2877 152.167 5.82413C151.883 6.36056 151.742 6.897 151.742 7.43343C151.742 8.58293 152.012 9.52807 152.554 10.2689C153.122 10.9841 153.857 11.7377 154.761 12.5295L157.354 14.7902C158.722 15.9397 159.87 17.2425 160.799 18.6985C161.754 20.1546 162.231 21.9554 162.231 24.1012C162.231 25.5572 161.896 26.8855 161.225 28.0861C160.554 29.2611 159.599 30.1935 158.36 30.8832C157.148 31.5729 155.702 31.9178 154.025 31.9178Z" fill="white"/>
<path d="M167.56 31.458V0.421482H174.488V31.458H167.56Z" fill="white"/>
<path d="M181.099 31.458V0.421482H185.976L192.401 15.365V0.421482H198.13V31.458H193.446L187.021 15.365V31.458H181.099Z" fill="white"/>
<path d="M212.898 31.9178C210.73 31.9178 209.014 31.4707 207.75 30.5767C206.511 29.6826 205.621 28.431 205.079 26.8216C204.563 25.1868 204.305 23.3093 204.305 21.1891V10.767C204.305 8.57016 204.589 6.6671 205.157 5.0578C205.724 3.4485 206.692 2.20959 208.06 1.34108C209.453 0.447028 211.337 0 213.711 0C216.033 0 217.852 0.383167 219.168 1.1495C220.51 1.91583 221.465 2.97593 222.033 4.32978C222.6 5.68364 222.884 7.26739 222.884 9.08104V11.0735H216.111V8.54461C216.111 7.88046 216.059 7.26739 215.956 6.70541C215.878 6.14344 215.672 5.69641 215.336 5.36433C215.027 5.00671 214.511 4.8279 213.788 4.8279C213.04 4.8279 212.498 5.03225 212.162 5.44096C211.827 5.82413 211.608 6.30947 211.504 6.897C211.427 7.48452 211.388 8.09758 211.388 8.73619V23.1049C211.388 23.7946 211.453 24.446 211.582 25.0591C211.737 25.6466 211.995 26.132 212.356 26.5151C212.743 26.8727 213.285 27.0515 213.982 27.0515C214.704 27.0515 215.259 26.86 215.646 26.4768C216.033 26.0936 216.304 25.5955 216.459 24.9825C216.614 24.3694 216.691 23.718 216.691 23.0283V19.3882H213.866V15.365H222.923V31.458H218.356L217.968 28.8907C217.556 29.7593 216.949 30.4873 216.149 31.0748C215.349 31.6368 214.266 31.9178 212.898 31.9178Z" fill="white"/>
<path d="M229.311 31.458V0.421482H236.239V12.9893H241.077V0.421482H248.045V31.458H241.077V17.8939H236.239V31.458H229.311Z" fill="white"/>
<path d="M9.9362 62.4494C9.9362 64.0054 8.66197 65.2668 7.09013 65.2668C5.51829 65.2668 4.24406 64.0054 4.24406 62.4494C4.24406 60.8934 5.51829 59.632 7.09013 59.632C8.66197 59.632 9.9362 60.8934 9.9362 62.4494Z" fill="#FFB500"/>
<path d="M27.0126 62.4494C27.0126 64.0054 25.7384 65.2668 24.1666 65.2668C22.5947 65.2668 21.3205 64.0054 21.3205 62.4494C21.3205 60.8934 22.5947 59.632 24.1666 59.632C25.7384 59.632 27.0126 60.8934 27.0126 62.4494Z" fill="#FFB500"/>
<path d="M44.0891 62.4494C44.0891 64.0054 42.8148 65.2668 41.243 65.2668C39.6711 65.2668 38.3969 64.0054 38.3969 62.4494C38.3969 60.8934 39.6711 59.632 41.243 59.632C42.8148 59.632 44.0891 60.8934 44.0891 62.4494Z" fill="#FFB500"/>
</g>
</svg>
